<svg id="instagram-logo_1_" data-name="instagram-logo (1)" xmlns="http://www.w3.org/2000/svg" width="19.338" height="19.338" viewBox="0 0 19.338 19.338">
  <path id="Path_8" data-name="Path 8" d="M14,0H5.337A5.343,5.343,0,0,0,0,5.337V14a5.343,5.343,0,0,0,5.337,5.337H14A5.343,5.343,0,0,0,19.338,14V5.337A5.343,5.343,0,0,0,14,0Zm3.621,14A3.625,3.625,0,0,1,14,17.623H5.337A3.625,3.625,0,0,1,1.716,14V5.337A3.625,3.625,0,0,1,5.337,1.716H14a3.625,3.625,0,0,1,3.621,3.621V14Z" transform="translate(0 0)" fill="#fff"/>
  <path id="Path_9" data-name="Path 9" d="M45.951,40.97a4.983,4.983,0,1,0,4.983,4.983A4.989,4.989,0,0,0,45.951,40.97Zm0,8.25a3.267,3.267,0,1,1,3.267-3.267A3.271,3.271,0,0,1,45.951,49.22Z" transform="translate(-36.282 -36.284)" fill="#fff"/>
  <path id="Path_10" data-name="Path 10" d="M120.179,28.251a1.258,1.258,0,1,0,.89.368A1.263,1.263,0,0,0,120.179,28.251Z" transform="translate(-105.318 -25.019)" fill="#fff"/>
</svg>
