<svg xmlns="http://www.w3.org/2000/svg" width="14.371" height="14.354" viewBox="0 0 14.371 14.354">
  <g id="noun-phone-187086" transform="translate(-10 -10.048)">
    <g id="Group_3361" data-name="Group 3361" transform="translate(10 10.048)">
      <path id="Path_24" data-name="Path 24" d="M12.711,962.414a2.847,2.847,0,0,0-.408.061,5.4,5.4,0,0,0-.693.183,3.12,3.12,0,0,0-1.08,1.3,3.858,3.858,0,0,0-.387.917c0,.006,0,.014,0,.02a3.574,3.574,0,0,0-.1.448,3.711,3.711,0,0,0-.041.51,4.63,4.63,0,0,0,.041.53,3.657,3.657,0,0,0,.122.591c.061.2.109.383.143.448,0,.009,0,.032,0,.041.04.1.127.291.224.55,0,.008,0,.012,0,.02.1.247.164.426.183.489a9.467,9.467,0,0,0,.836,1.773c0,.005,0,.015,0,.02.132.208.293.416.448.632,0,0,0,.016,0,.02.315.436.691.877,1.1,1.345.208.228.421.46.652.693,0,0,0,.017,0,.02a17.868,17.868,0,0,0,1.366,1.223c.225.179.451.355.673.51s.435.314.652.448a8.877,8.877,0,0,0,.856.448c.173.085.345.153.53.224.14.057.262.131.408.183.061.02.217.081.489.183.165.062.241.086.347.122.068.023.184.066.224.081s.164.038.245.061a2.178,2.178,0,0,0,.245.1,1.117,1.117,0,0,1,.183.02c.093.026.182.064.265.082.037.008.087.015.122.02.007,0,.013.018.02.02h.53a3.417,3.417,0,0,0,.938-.143,4.281,4.281,0,0,0,.958-.367,5,5,0,0,0,.836-.571,1.8,1.8,0,0,0,.245-.265c0-.005,0-.015,0-.02a1.11,1.11,0,0,0,.163-.224c0-.01,0-.03,0-.041a1.32,1.32,0,0,0,.061-.143c.014-.041.028-.076.041-.122.039-.121.085-.246.122-.387.034-.163.044-.294.061-.408,0-.007,0-.013,0-.02a2.434,2.434,0,0,0,.041-.306.613.613,0,0,0-.041-.224s0-.017,0-.02-.033-.032-.041-.041a.813.813,0,0,0-.163-.143c-.008-.005-.012-.015-.02-.02-.024-.017-.074-.043-.1-.061-.122-.08-.255-.159-.448-.265-.129-.065-.312-.2-.55-.326s-.455-.2-.652-.326-.36-.2-.53-.326a.97.97,0,0,1-.265-.2,3.092,3.092,0,0,1-.367-.183.457.457,0,0,0-.285-.061.727.727,0,0,0-.51.245c-.2.2-.381.457-.55.652a4.227,4.227,0,0,1-.55.652.7.7,0,0,1-.469.265.389.389,0,0,1-.245-.061c-.088,0-.156-.061-.2-.061s-.129-.077-.245-.143-.17-.122-.183-.122a11.322,11.322,0,0,1-2.405-1.753,11,11,0,0,1-1.773-2.426.775.775,0,0,1-.122-.183c-.068-.13-.115-.2-.143-.265-.02,0-.047-.073-.082-.2a.36.36,0,0,1-.041-.183.881.881,0,0,1,.285-.53c.2-.2.408-.334.632-.53a2.889,2.889,0,0,0,.632-.51c.2-.261.285-.4.285-.53a.794.794,0,0,0-.061-.326c-.048-.065-.122-.2-.224-.326-.1-.2-.163-.265-.183-.265-.1-.2-.2-.375-.306-.571s-.238-.391-.367-.652c-.129-.2-.231-.4-.306-.53a2.141,2.141,0,0,0-.53-.775h-.224c-.092,0-.185-.008-.306,0Z" transform="translate(-10 -962.41)" fill="#fff"/>
    </g>
  </g>
</svg>
